<svg xmlns="http://www.w3.org/2000/svg" width="220.032" height="29.016" viewBox="0 0 220.032 29.016">
  <path id="Path_1" data-name="Path 1" d="M7.236-14.472a3.689,3.689,0,0,1-2.61-1.008,3.468,3.468,0,0,1-.99-2.592,3.529,3.529,0,0,1,.99-2.61,3.529,3.529,0,0,1,2.61-.99,3.529,3.529,0,0,1,2.61.99,3.529,3.529,0,0,1,.99,2.61,3.529,3.529,0,0,1-.99,2.61A3.529,3.529,0,0,1,7.236-14.472Zm0,10.728a3.689,3.689,0,0,1-2.61-1.008,3.468,3.468,0,0,1-.99-2.592A3.349,3.349,0,0,1,4.626-9.9a3.643,3.643,0,0,1,2.61-.936,3.643,3.643,0,0,1,2.61.936,3.349,3.349,0,0,1,.99,2.556,3.529,3.529,0,0,1-.99,2.61A3.529,3.529,0,0,1,7.236-3.744Zm10.8-21.528a3.689,3.689,0,0,1-2.61-1.008,3.468,3.468,0,0,1-.99-2.592,3.529,3.529,0,0,1,.99-2.61,3.529,3.529,0,0,1,2.61-.99,3.529,3.529,0,0,1,2.61.99,3.529,3.529,0,0,1,.99,2.61,3.529,3.529,0,0,1-.99,2.61A3.529,3.529,0,0,1,18.036-25.272ZM36.216-3.708a3.689,3.689,0,0,1-2.61-1.008,3.468,3.468,0,0,1-.99-2.592,3.349,3.349,0,0,1,.99-2.556,3.643,3.643,0,0,1,2.61-.936,3.643,3.643,0,0,1,2.61.936,3.349,3.349,0,0,1,.99,2.556,3.529,3.529,0,0,1-.99,2.61A3.529,3.529,0,0,1,36.216-3.708Zm10.8-21.564a3.689,3.689,0,0,1-2.61-1.008,3.468,3.468,0,0,1-.99-2.592,3.529,3.529,0,0,1,.99-2.61,3.529,3.529,0,0,1,2.61-.99,3.529,3.529,0,0,1,2.61.99,3.529,3.529,0,0,1,.99,2.61,3.529,3.529,0,0,1-.99,2.61A3.529,3.529,0,0,1,47.016-25.272Zm-10.8,0a3.689,3.689,0,0,1-2.61-1.008,3.468,3.468,0,0,1-.99-2.592,3.529,3.529,0,0,1,.99-2.61,3.529,3.529,0,0,1,2.61-.99,3.529,3.529,0,0,1,2.61.99,3.529,3.529,0,0,1,.99,2.61,3.529,3.529,0,0,1-.99,2.61A3.529,3.529,0,0,1,36.216-25.272Zm28.908-.108a3.689,3.689,0,0,1-2.61-1.008,3.468,3.468,0,0,1-.99-2.592,3.529,3.529,0,0,1,.99-2.61,3.529,3.529,0,0,1,2.61-.99,3.529,3.529,0,0,1,2.61.99,3.529,3.529,0,0,1,.99,2.61,3.529,3.529,0,0,1-.99,2.61A3.529,3.529,0,0,1,65.124-25.38Zm28.8,11.088a3.529,3.529,0,0,0,2.61-.99,3.529,3.529,0,0,0,.99-2.61,3.529,3.529,0,0,0-.99-2.61,3.529,3.529,0,0,0-2.61-.99,3.529,3.529,0,0,0-2.61.99,3.529,3.529,0,0,0-.99,2.61,3.468,3.468,0,0,0,.99,2.592A3.689,3.689,0,0,0,93.924-14.292Zm0,10.656a3.529,3.529,0,0,0,2.61-.99,3.529,3.529,0,0,0,.99-2.61,3.233,3.233,0,0,0-.99-2.52,3.73,3.73,0,0,0-2.61-.9,3.73,3.73,0,0,0-2.61.9,3.233,3.233,0,0,0-.99,2.52,3.468,3.468,0,0,0,.99,2.592A3.689,3.689,0,0,0,93.924-3.636Zm10.8-10.656a3.529,3.529,0,0,0,2.61-.99,3.529,3.529,0,0,0,.99-2.61,3.529,3.529,0,0,0-.99-2.61,3.529,3.529,0,0,0-2.61-.99,3.529,3.529,0,0,0-2.61.99,3.529,3.529,0,0,0-.99,2.61,3.468,3.468,0,0,0,.99,2.592A3.689,3.689,0,0,0,104.724-14.292Zm-10.8-10.8a3.529,3.529,0,0,0,2.61-.99,3.529,3.529,0,0,0,.99-2.61,3.529,3.529,0,0,0-.99-2.61,3.529,3.529,0,0,0-2.61-.99,3.529,3.529,0,0,0-2.61.99,3.529,3.529,0,0,0-.99,2.61,3.468,3.468,0,0,0,.99,2.592A3.689,3.689,0,0,0,93.924-25.092ZM122.94-14.328a3.529,3.529,0,0,0,2.61-.99,3.529,3.529,0,0,0,.99-2.61,3.529,3.529,0,0,0-.99-2.61,3.529,3.529,0,0,0-2.61-.99,3.529,3.529,0,0,0-2.61.99,3.529,3.529,0,0,0-.99,2.61,3.468,3.468,0,0,0,.99,2.592A3.689,3.689,0,0,0,122.94-14.328Zm0,10.728a3.529,3.529,0,0,0,2.61-.99,3.529,3.529,0,0,0,.99-2.61,3.349,3.349,0,0,0-.99-2.556,3.643,3.643,0,0,0-2.61-.936,3.643,3.643,0,0,0-2.61.936,3.349,3.349,0,0,0-.99,2.556,3.468,3.468,0,0,0,.99,2.592A3.689,3.689,0,0,0,122.94-3.6Zm10.8-21.528a3.529,3.529,0,0,0,2.61-.99,3.529,3.529,0,0,0,.99-2.61,3.529,3.529,0,0,0-.99-2.61,3.529,3.529,0,0,0-2.61-.99,3.529,3.529,0,0,0-2.61.99,3.529,3.529,0,0,0-.99,2.61,3.468,3.468,0,0,0,.99,2.592A3.689,3.689,0,0,0,133.74-25.128Zm0,10.8a3.529,3.529,0,0,0,2.61-.99,3.529,3.529,0,0,0,.99-2.61,3.529,3.529,0,0,0-.99-2.61,3.529,3.529,0,0,0-2.61-.99,3.529,3.529,0,0,0-2.61.99,3.529,3.529,0,0,0-.99,2.61,3.468,3.468,0,0,0,.99,2.592A3.689,3.689,0,0,0,133.74-14.328ZM151.524-3.564a3.529,3.529,0,0,0,2.61-.99,3.529,3.529,0,0,0,.99-2.61,3.349,3.349,0,0,0-.99-2.556,3.643,3.643,0,0,0-2.61-.936,3.643,3.643,0,0,0-2.61.936,3.349,3.349,0,0,0-.99,2.556,3.468,3.468,0,0,0,.99,2.592A3.689,3.689,0,0,0,151.524-3.564Zm10.8-21.528a3.529,3.529,0,0,0,2.61-.99,3.529,3.529,0,0,0,.99-2.61,3.529,3.529,0,0,0-.99-2.61,3.529,3.529,0,0,0-2.61-.99,3.529,3.529,0,0,0-2.61.99,3.529,3.529,0,0,0-.99,2.61,3.468,3.468,0,0,0,.99,2.592A3.689,3.689,0,0,0,162.324-25.092Zm0,10.8a3.529,3.529,0,0,0,2.61-.99,3.529,3.529,0,0,0,.99-2.61,3.529,3.529,0,0,0-.99-2.61,3.529,3.529,0,0,0-2.61-.99,3.529,3.529,0,0,0-2.61.99,3.529,3.529,0,0,0-.99,2.61,3.468,3.468,0,0,0,.99,2.592A3.689,3.689,0,0,0,162.324-14.292Zm-10.8-10.8a3.529,3.529,0,0,0,2.61-.99,3.529,3.529,0,0,0,.99-2.61,3.529,3.529,0,0,0-.99-2.61,3.529,3.529,0,0,0-2.61-.99,3.529,3.529,0,0,0-2.61.99,3.529,3.529,0,0,0-.99,2.61,3.468,3.468,0,0,0,.99,2.592A3.689,3.689,0,0,0,151.524-25.092Zm28.908-.288a3.689,3.689,0,0,1-2.61-1.008,3.468,3.468,0,0,1-.99-2.592,3.529,3.529,0,0,1,.99-2.61,3.529,3.529,0,0,1,2.61-.99,3.529,3.529,0,0,1,2.61.99,3.529,3.529,0,0,1,.99,2.61,3.529,3.529,0,0,1-.99,2.61A3.529,3.529,0,0,1,180.432-25.38Zm28.836,10.908a3.529,3.529,0,0,0,2.61-.99,3.529,3.529,0,0,0,.99-2.61,3.529,3.529,0,0,0-.99-2.61,3.529,3.529,0,0,0-2.61-.99,3.529,3.529,0,0,0-2.61.99,3.529,3.529,0,0,0-.99,2.61,3.468,3.468,0,0,0,.99,2.592A3.689,3.689,0,0,0,209.268-14.472Zm0,10.728a3.529,3.529,0,0,0,2.61-.99,3.529,3.529,0,0,0,.99-2.61,3.349,3.349,0,0,0-.99-2.556,3.643,3.643,0,0,0-2.61-.936,3.643,3.643,0,0,0-2.61.936,3.349,3.349,0,0,0-.99,2.556,3.468,3.468,0,0,0,.99,2.592A3.689,3.689,0,0,0,209.268-3.744Zm10.8-.036a3.529,3.529,0,0,0,2.61-.99,3.529,3.529,0,0,0,.99-2.61,3.349,3.349,0,0,0-.99-2.556,3.643,3.643,0,0,0-2.61-.936,3.643,3.643,0,0,0-2.61.936,3.349,3.349,0,0,0-.99,2.556,3.468,3.468,0,0,0,.99,2.592A3.689,3.689,0,0,0,220.068-3.78Zm-10.8-21.492a3.529,3.529,0,0,0,2.61-.99,3.529,3.529,0,0,0,.99-2.61,3.529,3.529,0,0,0-.99-2.61,3.529,3.529,0,0,0-2.61-.99,3.529,3.529,0,0,0-2.61.99,3.529,3.529,0,0,0-.99,2.61,3.468,3.468,0,0,0,.99,2.592A3.689,3.689,0,0,0,209.268-25.272Z" transform="translate(-3.636 32.58)" fill="#dfdfdf"/>
</svg>
